HIERARCHY
ROOT joint_0
{
	OFFSET 0.000000 0.000000 0.000000
	CHANNELS 6 Xposition Yposition Zposition Zrotation Yrotation Xrotation 
	JOINT joint_1
	{
		OFFSET 11.612000 -0.419000 106.198000
		CHANNELS 3 Zrotation Yrotation Xrotation
		JOINT joint_2
		{
			OFFSET -1.708000 -1.022000 97.564090
			CHANNELS 3 Zrotation Yrotation Xrotation
			JOINT joint_3
			{
				OFFSET -4.121000 -1.538000 97.375000
				CHANNELS 3 Zrotation Yrotation Xrotation
				JOINT joint_4
				{
					OFFSET 5.442000 -2.123000 132.795900
					CHANNELS 3 Zrotation Yrotation Xrotation
					JOINT joint_5
					{
						OFFSET 21.935000 0.195000 82.975100
						CHANNELS 3 Zrotation Yrotation Xrotation
						End Site
						{
							OFFSET 0.000000 0.000000 0.000000
						}
					}
				}
				JOINT joint_6
				{
					OFFSET 4.262000 -30.048000 73.899900
					CHANNELS 3 Zrotation Yrotation Xrotation
					JOINT joint_7
					{
						OFFSET 9.731000 -136.810010 -21.963010
						CHANNELS 3 Zrotation Yrotation Xrotation
						JOINT joint_8
						{
							OFFSET 33.360000 -35.709000 -267.597900
							CHANNELS 3 Zrotation Yrotation Xrotation
							JOINT joint_9
							{
								OFFSET 36.156000 -29.759000 -240.558040
								CHANNELS 3 Zrotation Yrotation Xrotation
								End Site
								{
									OFFSET 0.000000 0.000000 0.000000
								}
							}
						}
					}
				}
				JOINT joint_10
				{
					OFFSET 2.027000 27.734000 74.914920
					CHANNELS 3 Zrotation Yrotation Xrotation
					JOINT joint_11
					{
						OFFSET -5.183000 136.784000 -23.604980
						CHANNELS 3 Zrotation Yrotation Xrotation
						JOINT joint_12
						{
							OFFSET 29.806000 37.229000 -267.809940
							CHANNELS 3 Zrotation Yrotation Xrotation
							JOINT joint_13
							{
								OFFSET 36.890000 46.524990 -237.772030
								CHANNELS 3 Zrotation Yrotation Xrotation
								End Site
								{
									OFFSET 0.000000 0.000000 0.000000
								}
							}
						}
					}
				}
			}
		}
	}
	JOINT joint_14
	{
		OFFSET -7.290000 -102.873990 -124.314940
		CHANNELS 3 Zrotation Yrotation Xrotation
		JOINT joint_15
		{
			OFFSET -15.466000 -19.909010 -438.533020
			CHANNELS 3 Zrotation Yrotation Xrotation
			JOINT joint_16
			{
				OFFSET -26.899000 -18.922000 -464.797000
				CHANNELS 3 Zrotation Yrotation Xrotation
				JOINT joint_17
				{
					OFFSET 179.329000 -12.011000 -84.174000
					CHANNELS 3 Zrotation Yrotation Xrotation
					End Site
					{
						OFFSET 0.000000 0.000000 0.000000
					}
				}
			}
		}
	}
	JOINT joint_18
	{
		OFFSET -6.225000 101.546000 -125.479980
		CHANNELS 3 Zrotation Yrotation Xrotation
		JOINT joint_19
		{
			OFFSET -13.973000 7.996000 -438.963010
			CHANNELS 3 Zrotation Yrotation Xrotation
			JOINT joint_20
			{
				OFFSET -44.294000 5.716000 -463.813970
				CHANNELS 3 Zrotation Yrotation Xrotation
				JOINT joint_21
				{
					OFFSET 178.505000 -4.689000 -85.139000
					CHANNELS 3 Zrotation Yrotation Xrotation
					End Site
					{
						OFFSET 0.000000 0.000000 0.000000
					}
				}
			}
		}
	}
}
MOTION
Frames: 15
Frame Time: 0.016667
-3394.232422 961.410156 1126.633057 7.523574 -1.249905 0.624177 -0.756749 6.742640 1.268540 -0.790652 -1.371512 -0.342040 -0.723114 1.320861 0.167717 -0.238076 2.227301 0.785103 0.000000 0.000000 0.000000 -3.818715 -0.807829 0.526101 -0.012780 -1.574098 -1.658847 1.492890 -7.596315 3.987665 0.000000 0.000000 0.000000 0.704512 -2.847565 -0.639690 -1.247204 -3.140111 0.442143 -2.730033 -7.452090 -7.372477 0.000000 0.000000 0.000000 -2.236665 2.286223 0.902386 -2.086813 0.378897 -0.925439 -1.936288 -3.047715 -1.111404 0.000000 0.000000 0.000000 2.336816 0.626251 0.120520 2.306219 -0.888619 0.235149 2.243325 -0.020427 1.069261 0.000000 0.000000 0.000000 
-3392.609375 961.208130 1126.578003 7.559902 -1.194403 0.623933 -0.745392 6.799781 1.308571 -0.778800 -1.390895 -0.350401 -0.709907 1.339299 0.172121 -0.233815 2.134761 0.772010 0.000000 0.000000 0.000000 -3.859812 -0.759345 0.517871 -0.025621 -1.532863 -1.705484 1.509201 -7.675252 4.046295 0.000000 0.000000 0.000000 0.770724 -2.789531 -0.685799 -1.244259 -3.088619 0.508999 -2.756312 -7.512512 -7.432485 0.000000 0.000000 0.000000 -2.287966 2.297490 0.930089 -2.139545 0.421743 -0.901313 -1.978865 -3.177968 -1.140025 0.000000 0.000000 0.000000 2.355850 0.622166 0.134102 2.326906 -0.821702 0.235468 2.261184 -0.094043 1.075886 0.000000 0.000000 0.000000 
-3390.676270 961.010132 1126.535034 7.593146 -1.119800 0.621983 -0.736011 6.856460 1.359565 -0.769063 -1.414659 -0.363773 -0.698266 1.362257 0.179394 -0.228469 2.016197 0.756330 0.000000 0.000000 0.000000 -3.894405 -0.700826 0.505687 -0.041215 -1.480365 -1.759688 1.529348 -7.771136 4.119267 0.000000 0.000000 0.000000 0.838553 -2.707580 -0.732794 -1.238971 -3.012853 0.578243 -2.787514 -7.596216 -7.495627 0.000000 0.000000 0.000000 -2.358107 2.300900 0.969725 -2.211384 0.464123 -0.868418 -2.038476 -3.333944 -1.178342 0.000000 0.000000 0.000000 2.392929 0.616144 0.149584 2.366120 -0.752119 0.224751 2.295559 -0.177134 1.090172 0.000000 0.000000 0.000000 
-3388.388672 960.832275 1126.430054 7.631949 -1.004800 0.621209 -0.729224 6.899154 1.418931 -0.761591 -1.433986 -0.377181 -0.688962 1.381466 0.186384 -0.220920 1.867439 0.734096 0.000000 0.000000 0.000000 -3.921455 -0.629949 0.476476 -0.058240 -1.412189 -1.804466 1.548141 -7.866010 4.186338 0.000000 0.000000 0.000000 0.898557 -2.607273 -0.777045 -1.230125 -2.917132 0.639714 -2.814502 -7.665684 -7.554224 0.000000 0.000000 0.000000 -2.439232 2.286314 1.004020 -2.295109 0.508658 -0.841100 -2.107509 -3.544866 -1.224745 0.000000 0.000000 0.000000 2.427008 0.580898 0.177160 2.403522 -0.665860 0.210171 2.326969 -0.324427 1.101322 0.000000 0.000000 0.000000 
-3385.699707 960.684509 1126.192993 7.682876 -0.835864 0.623593 -0.722549 6.902872 1.479565 -0.753654 -1.440985 -0.386999 -0.679726 1.389924 0.191598 -0.210736 1.700990 0.703041 0.000000 0.000000 0.000000 -3.957279 -0.541785 0.421592 -0.075174 -1.324628 -1.825193 1.561884 -7.941918 4.235264 0.000000 0.000000 0.000000 0.937109 -2.487380 -0.809466 -1.216735 -2.798625 0.677871 -2.830134 -7.692899 -7.599594 0.000000 0.000000 0.000000 -2.532145 2.251116 1.022695 -2.391046 0.549353 -0.836691 -2.187711 -3.806278 -1.279751 0.000000 0.000000 0.000000 2.443919 0.496171 0.225739 2.425570 -0.548888 0.197533 2.342553 -0.565628 1.102366 0.000000 0.000000 0.000000 
-3382.628906 960.560486 1125.853027 7.742858 -0.620641 0.627860 -0.716262 6.873023 1.541999 -0.745701 -1.441535 -0.392220 -0.670972 1.391796 0.192870 -0.198190 1.520381 0.664024 0.000000 0.000000 0.000000 -3.999893 -0.436884 0.349337 -0.092865 -1.218947 -1.830210 1.572454 -8.005915 4.272696 0.000000 0.000000 0.000000 0.960737 -2.346224 -0.833435 -1.198911 -2.656333 0.700347 -2.837883 -7.690160 -7.636295 0.000000 0.000000 0.000000 -2.639392 2.198560 1.032932 -2.501471 0.584971 -0.850463 -2.281713 -4.104155 -1.343637 0.000000 0.000000 0.000000 2.452003 0.371354 0.292060 2.440410 -0.406493 0.183463 2.350136 -0.877102 1.097678 0.000000 0.000000 0.000000 
-3379.230957 960.466980 1125.499023 7.806358 -0.358290 0.634784 -0.719200 6.875391 1.634998 -0.746480 -1.425052 -0.408794 -0.670501 1.382360 0.202552 -0.182853 1.247603 0.619225 0.000000 0.000000 0.000000 -3.989246 -0.329858 0.252682 -0.113741 -1.100214 -1.833838 1.581559 -8.081430 4.298531 0.000000 0.000000 0.000000 0.979261 -2.203304 -0.887651 -1.175486 -2.508445 0.747568 -2.842178 -7.679969 -7.670663 0.000000 0.000000 0.000000 -2.737016 2.112208 1.029131 -2.606422 0.649514 -0.844375 -2.361953 -4.543430 -1.410484 0.000000 0.000000 0.000000 2.451100 0.221916 0.364436 2.446913 -0.263967 0.165494 2.348588 -1.285998 1.086033 0.000000 0.000000 0.000000 
-3375.205078 960.469788 1125.125000 7.868121 -0.043433 0.645616 -0.727937 6.782313 1.786570 -0.754346 -1.282635 -0.451671 -0.679243 1.272140 0.231737 -0.164529 0.802066 0.572298 0.000000 0.000000 0.000000 -3.884092 -0.160206 0.123634 -0.152394 -0.900348 -1.864368 1.589351 -8.180589 4.308586 0.000000 0.000000 0.000000 0.961905 -2.011702 -1.013812 -1.133548 -2.297398 0.854292 -2.841866 -7.657274 -7.706266 0.000000 0.000000 0.000000 -2.805975 2.002934 1.001212 -2.688402 0.761224 -0.787910 -2.403778 -5.240903 -1.476503 0.000000 0.000000 0.000000 2.441121 0.075735 0.435634 2.444187 -0.138399 0.140702 2.336526 -1.841595 1.065506 0.000000 0.000000 0.000000 
-3370.522949 960.565552 1124.694946 7.929000 0.323009 0.660384 -0.737810 6.564226 1.982916 -0.764780 -1.014228 -0.511461 -0.693271 1.059620 0.274907 -0.144095 0.214315 0.522681 0.000000 0.000000 0.000000 -3.709783 0.080123 -0.030721 -0.208704 -0.615682 -1.919437 1.595121 -8.293961 4.302913 0.000000 0.000000 0.000000 0.898514 -1.762941 -1.201681 -1.072767 -2.013508 1.009230 -2.835257 -7.613439 -7.740115 0.000000 0.000000 0.000000 -2.855095 1.877871 0.951032 -2.754682 0.906355 -0.694759 -2.417569 -6.151133 -1.543490 0.000000 0.000000 0.000000 2.422847 -0.071525 0.509813 2.433323 -0.021111 0.110501 2.315092 -2.530127 1.037001 0.000000 0.000000 0.000000 
-3366.721191 960.489197 1124.511963 8.001338 0.725376 0.675442 -0.796236 6.989045 2.200469 -0.816250 -1.051302 -0.587211 -0.736202 1.108882 0.324865 -0.120570 -0.400581 0.457843 0.000000 0.000000 0.000000 -3.456820 0.073165 -0.200686 -0.225769 -0.566139 -1.911462 1.601885 -8.434242 4.296358 0.000000 0.000000 0.000000 0.978113 -1.728447 -1.379079 -1.048323 -1.976339 1.170637 -2.839162 -7.625367 -7.778130 0.000000 0.000000 0.000000 -2.896851 1.632363 0.907204 -2.822825 1.105644 -0.593988 -2.430719 -7.055769 -1.609855 0.000000 0.000000 0.000000 2.396487 -0.307862 0.587098 2.415117 0.087862 0.077082 2.286661 -3.201696 1.005613 0.000000 0.000000 0.000000 
-3365.520752 960.043457 1124.920044 8.086333 1.150598 0.686757 -0.969075 8.939475 2.442686 -0.952854 -1.799572 -0.687931 -0.834055 1.746825 0.385877 -0.090954 -1.007588 0.370035 0.000000 0.000000 0.000000 -3.111788 -0.538850 -0.466510 -0.128189 -1.102632 -1.686760 1.614969 -8.636234 4.308081 0.000000 0.000000 0.000000 1.485292 -2.208157 -1.450488 -1.135609 -2.559235 1.235899 -2.869202 -7.754341 -7.839288 0.000000 0.000000 0.000000 -2.934116 1.139689 0.881246 -2.904813 1.410831 -0.495211 -2.458735 -7.825912 -1.674565 0.000000 0.000000 0.000000 2.364743 -0.741056 0.662330 2.393042 0.212320 0.045211 2.255601 -3.755949 0.976100 0.000000 0.000000 0.000000 
-3366.351562 959.328308 1125.802979 8.174362 1.624084 0.705572 -1.255671 11.978061 2.654534 -1.141855 -2.727086 -0.750624 -0.968271 2.512071 0.427896 -0.055360 -1.659340 0.275426 0.000000 0.000000 0.000000 -2.750448 -1.598220 -0.981148 0.102200 -2.062556 -1.108964 1.629995 -8.888924 4.323918 0.000000 0.000000 0.000000 2.394043 -3.042050 -1.266686 -1.356526 -3.617486 1.023059 -2.913823 -7.966630 -7.905175 0.000000 0.000000 0.000000 -2.960161 0.411945 0.850023 -2.993264 1.821298 -0.385686 -2.489493 -8.548868 -1.737834 0.000000 0.000000 0.000000 2.328635 -1.362153 0.721903 2.368885 0.356922 0.016248 2.223230 -4.244715 0.947630 0.000000 0.000000 0.000000 
-3366.001465 958.447083 1126.531982 8.297352 2.172971 0.751888 -1.524260 14.273482 2.709750 -1.284563 -2.934692 -0.718364 -1.084873 2.701725 0.419621 -0.020485 -2.259277 0.193521 0.000000 0.000000 0.000000 -2.459087 -2.408019 -1.596750 0.338300 -2.769742 -0.387383 1.628997 -9.079798 4.292870 0.000000 0.000000 0.000000 3.067405 -3.622642 -0.807155 -1.580137 -4.402234 0.609672 -2.944631 -8.205721 -7.884682 0.000000 0.000000 0.000000 -2.996323 -0.309738 0.831701 -3.085194 2.174970 -0.303053 -2.530369 -9.198677 -1.800858 0.000000 0.000000 0.000000 2.276188 -1.960056 0.769821 2.328359 0.410186 -0.016032 2.176450 -4.688200 0.913256 0.000000 0.000000 0.000000 
-3362.023682 957.404541 1126.631958 8.494774 2.675441 0.820797 -1.643192 15.056858 2.626246 -1.325604 -2.773045 -0.656888 -1.128134 2.582150 0.387088 0.010958 -2.835257 0.120884 0.000000 0.000000 0.000000 -2.214932 -2.559555 -1.968320 0.421466 -2.837234 0.085774 1.595883 -9.054995 4.186546 0.000000 0.000000 0.000000 2.889005 -3.643841 -0.299717 -1.622119 -4.435792 0.310169 -2.915074 -8.330933 -7.659480 0.000000 0.000000 0.000000 -3.072131 -0.661948 0.868916 -3.185508 2.323924 -0.282767 -2.594557 -9.794208 -1.870456 0.000000 0.000000 0.000000 2.199943 -2.194909 0.849627 2.254445 0.252260 -0.066554 2.098438 -5.139444 0.863708 0.000000 0.000000 0.000000 
-3355.621582 956.161133 1126.339966 8.754833 3.102625 0.903205 -1.663640 15.059871 2.452693 -1.304865 -2.615170 -0.581894 -1.120008 2.446205 0.336453 0.043514 -3.428094 0.040355 0.000000 0.000000 0.000000 -1.972429 -2.322391 -2.108596 0.395066 -2.528474 0.354704 1.540224 -8.855316 4.031131 0.000000 0.000000 0.000000 2.102497 -3.342148 0.202549 -1.528458 -4.003275 0.131672 -2.837667 -8.356097 -7.268176 0.000000 0.000000 0.000000 -3.179935 -0.711608 0.957819 -3.294940 2.323808 -0.310367 -2.679552 -10.339701 -1.945768 0.000000 0.000000 0.000000 2.104962 -2.122477 0.966057 2.152035 -0.080939 -0.135475 1.994329 -5.584264 0.801855 0.000000 0.000000 0.000000 
